<!-- Generated by IcoMoon.io -->
<svg version="1.1" xmlns="http://www.w3.org/2000/svg" width="30" height="30" viewBox="0 0 384 448">
<title></title>
<g id="icomoon-ignore">
</g>
<path fill="#fff" d="M129.75 300v0c0.5-0.75 0.25-2.25-0.75-3.25-1.25-1-2.75-1.25-3.5-0.5-0.5 0.75-0.25 2.25 0.75 3.25 1.25 1 2.75 1.25 3.5 0.5zM122.75 289.75c-0.75-1-2-1.5-3-1-0.75 0.5-0.75 2 0 3 1 1.25 2.25 1.75 3 1.25v0c0.75-0.5 0.75-2 0-3.25zM112.5 279.75v0c0.25-0.5-0.25-1.5-1.25-2-0.75-0.25-1.75-0.25-2 0.5-0.5 0.75 0 1.5 1 2 1 0.25 2 0.25 2.25-0.5zM117.75 285.5v0c0.5-0.5 0.5-1.75-0.5-2.5-0.75-1-2-1.25-2.5-0.75-0.75 0.75-0.5 1.75 0.25 2.75 0.75 0.75 2 1.25 2.75 0.5zM139.25 304.25v0c0.25-1-0.75-2.25-2.25-2.75s-2.75 0-3.25 1c-0.25 1 0.75 2.25 2.25 2.75s2.75 0 3.25-1zM149.75 305v0c0-1-1.25-2-3-2-1.5 0-2.5 1-2.5 2s1.25 2 2.75 2 2.75-1 2.75-2zM159.5 303.25v0c-0.25-1-1.75-1.5-3.25-1.25s-2.5 1.25-2.25 2.25 1.5 1.75 3 1.5 2.5-1.5 2.5-2.5zM320 224c0-70.75-57.25-128-128-128s-128 57.25-128 128c0 56.5 36.75 104.5 87.5 121.5 6.5 1.25 8.75-2.75 8.75-6.25 0-3 0-13-0.25-23.75 0 0-35.5 7.75-43-15.25 0 0-5.75-14.75-14.25-18.5 0 0-11.5-8 1-8 0 0 12.5 1 19.5 13.25 11.25 19.75 30 14 37.25 10.75 1.25-8.25 4.5-14 8.25-17.25-28.5-3.25-58.5-14.25-58.5-63.25 0-14 5-25.25 13.25-34.25-1.25-3.25-5.75-16.25 1.25-34 10.75-3.25 35.25 13.25 35.25 13.25 10.25-3 21-4.25 32-4.25s21.75 1.25 32 4.25c0 0 24.5-16.5 35.25-13.25 7 17.75 2.5 30.75 1.25 34 8.25 9 13.25 20.25 13.25 34.25 0 49.25-30 60-58.5 63.25 4.5 4 8.75 11.75 8.75 23.75 0 17-0.25 30.75-0.25 35 0 3.5 2.25 7.5 8.75 6.25 50.75-17 87.5-65 87.5-121.5zM384 104v240c0 39.75-32.25 72-72 72h-240c-39.75 0-72-32.25-72-72v-240c0-39.75 32.25-72 72-72h240c39.75 0 72 32.25 72 72z"></path>
</svg>
